<svg width="46" height="40" viewBox="0 0 46 40" fill="none" xmlns="http://www.w3.org/2000/svg">
<path d="M45.0874 22.5086C45.0873 22.5084 45.0873 22.5083 45.0872 22.5081L36.7437 1.50091C36.5667 1.05456 36.0621 0.836663 35.617 1.01422C35.6167 1.01433 35.6163 1.01444 35.616 1.01466L1.76767 14.5297C1.62964 14.5895 1.50992 14.685 1.42068 14.8063C1.13918 14.953 0.961349 15.2433 0.958313 15.5614V38.1778C0.958313 38.6581 1.34673 39.0476 1.8258 39.0476H38.2601C38.7392 39.0476 39.1276 38.6581 39.1276 38.1778V25.8257L44.6031 23.6389C45.0482 23.4609 45.2649 22.9549 45.0874 22.5086ZM37.3926 37.3079H2.69328V16.4312H37.3926V37.3079ZM15.4323 14.6958L29.9574 8.89213C31.2538 10.2585 33.05 11.035 34.9307 11.0424L36.3794 14.6958H15.4323ZM39.1276 23.9573V15.5614C39.1276 15.081 38.7392 14.6915 38.2601 14.6915H38.2462L36.408 10.0621C36.3876 10.0235 36.3639 9.98674 36.3369 9.95249C36.2439 9.53354 35.857 9.24768 35.4304 9.2827C33.6804 9.44264 31.9686 8.70348 30.8822 7.31855C30.6118 6.98398 30.1367 6.9008 29.7692 7.1237C29.728 7.12859 29.6871 7.1362 29.6469 7.14632L11.9138 14.227C11.6992 14.3114 11.5275 14.4787 11.4375 14.6915H6.05218L35.4529 2.95271L43.1553 22.3463L39.1276 23.9573Z" fill="url(#paint0_linear)" stroke="url(#paint1_linear)" stroke-width="0.5"/>
<path d="M5.04767 31.4355C6.73189 31.9347 8.04981 33.2546 8.5497 34.9428C8.65933 35.3113 8.99732 35.5637 9.38075 35.5639C9.42575 35.561 9.47042 35.5543 9.51434 35.5438C9.55327 35.5549 9.59306 35.5631 9.63318 35.5682H30.4528C30.4886 35.5635 30.5239 35.5562 30.5586 35.5465C30.992 35.6521 31.4288 35.3856 31.5343 34.951C31.5346 34.9494 31.5351 34.9479 31.5354 34.9463C32.034 33.2563 33.3521 31.9346 35.0374 31.4346C35.4461 31.3094 35.7001 30.901 35.6325 30.4778C35.6441 30.4356 35.6525 30.3925 35.6577 30.349V23.3901C35.6526 23.3465 35.6439 23.3035 35.6317 23.2614C35.6997 22.8381 35.4456 22.4295 35.0366 22.3045C33.3513 21.8047 32.0334 20.4824 31.5363 18.792C31.4107 18.3794 30.9994 18.1241 30.5751 18.1953C30.535 18.1841 30.4941 18.176 30.4528 18.171H9.63318C9.58948 18.1762 9.54622 18.1849 9.50393 18.1971C9.08201 18.1296 8.67494 18.3842 8.5497 18.7938C8.05079 20.4834 6.73275 21.8047 5.04767 22.3045C4.63897 22.4298 4.38502 22.8382 4.45257 23.2614C4.4413 23.3037 4.43316 23.3466 4.42828 23.3901V30.349C4.43327 30.3899 4.4414 30.4304 4.45257 30.4699C4.38144 30.8958 4.63594 31.3088 5.04767 31.4355ZM6.16325 23.7433C7.90516 23.0418 9.28576 21.6574 9.98538 19.9107H30.0997C30.7997 21.6574 32.1806 23.0418 33.9227 23.7433V29.9959C32.1814 30.6982 30.801 32.0823 30.1006 33.8285H9.98538C9.285 32.0823 7.90461 30.6982 6.16325 29.9959V23.7433Z" fill="url(#paint2_linear)" stroke="url(#paint3_linear)" stroke-width="0.5"/>
<path d="M20.043 32.0887C22.9177 32.0887 25.2479 29.7521 25.2479 26.8696C25.2479 23.9871 22.9177 21.6504 20.043 21.6504C17.1684 21.6504 14.8381 23.9871 14.8381 26.8696C14.841 29.7509 17.1696 32.0859 20.043 32.0887ZM20.043 23.3901C21.9594 23.3901 23.513 24.9479 23.513 26.8696C23.513 28.7912 21.9594 30.349 20.043 30.349C18.1267 30.349 16.5731 28.7912 16.5731 26.8696C16.5731 24.9479 18.1267 23.3901 20.043 23.3901Z" fill="url(#paint4_linear)" stroke="url(#paint5_linear)" stroke-width="0.5"/>
<path d="M10.5006 28.1743C11.2192 28.1743 11.8018 27.5901 11.8018 26.8695C11.8018 26.149 11.2192 25.5648 10.5006 25.5648C9.78196 25.5648 9.19934 26.149 9.19934 26.8695C9.19934 27.5902 9.78196 28.1743 10.5006 28.1743ZM10.5006 26.4346C10.7401 26.4346 10.9343 26.6294 10.9343 26.8695C10.9343 27.1097 10.7401 27.3045 10.5006 27.3045C10.261 27.3045 10.0668 27.1097 10.0668 26.8695C10.0668 26.6294 10.261 26.4346 10.5006 26.4346Z" fill="url(#paint6_linear)" stroke="url(#paint7_linear)" stroke-width="0.5"/>
<path d="M29.5853 28.1743C30.3039 28.1743 30.8865 27.5901 30.8865 26.8695C30.8865 26.149 30.3039 25.5648 29.5853 25.5648C28.8667 25.5648 28.2841 26.149 28.2841 26.8695C28.2841 27.5902 28.8667 28.1743 29.5853 28.1743ZM29.5853 26.4346C29.8248 26.4346 30.019 26.6294 30.019 26.8695C30.019 27.1097 29.8248 27.3045 29.5853 27.3045C29.3457 27.3045 29.1515 27.1097 29.1515 26.8695C29.1515 26.6294 29.3457 26.4346 29.5853 26.4346Z" fill="url(#paint8_linear)" stroke="url(#paint9_linear)" stroke-width="0.5"/>
<defs>
<linearGradient id="paint0_linear" x1="0.958313" y1="0.952393" x2="30.1161" y2="48.3046" gradientUnits="userSpaceOnUse">
<stop stop-color="#C5C5C5"/>
<stop offset="1" stop-color="#9A9A9A"/>
</linearGradient>
<linearGradient id="paint1_linear" x1="0.958313" y1="0.952393" x2="30.1161" y2="48.3046" gradientUnits="userSpaceOnUse">
<stop stop-color="#C5C5C5"/>
<stop offset="1" stop-color="#9A9A9A"/>
</linearGradient>
<linearGradient id="paint2_linear" x1="4.42828" y1="18.171" x2="14.675" y2="43.9197" gradientUnits="userSpaceOnUse">
<stop stop-color="#C5C5C5"/>
<stop offset="1" stop-color="#9A9A9A"/>
</linearGradient>
<linearGradient id="paint3_linear" x1="4.42828" y1="18.171" x2="14.675" y2="43.9197" gradientUnits="userSpaceOnUse">
<stop stop-color="#C5C5C5"/>
<stop offset="1" stop-color="#9A9A9A"/>
</linearGradient>
<linearGradient id="paint4_linear" x1="14.8381" y1="21.6504" x2="23.3093" y2="33.4773" gradientUnits="userSpaceOnUse">
<stop stop-color="#C5C5C5"/>
<stop offset="1" stop-color="#9A9A9A"/>
</linearGradient>
<linearGradient id="paint5_linear" x1="14.8381" y1="21.6504" x2="23.3093" y2="33.4773" gradientUnits="userSpaceOnUse">
<stop stop-color="#C5C5C5"/>
<stop offset="1" stop-color="#9A9A9A"/>
</linearGradient>
<linearGradient id="paint6_linear" x1="9.19934" y1="25.5648" x2="11.3171" y2="28.5215" gradientUnits="userSpaceOnUse">
<stop stop-color="#C5C5C5"/>
<stop offset="1" stop-color="#9A9A9A"/>
</linearGradient>
<linearGradient id="paint7_linear" x1="9.19934" y1="25.5648" x2="11.3171" y2="28.5215" gradientUnits="userSpaceOnUse">
<stop stop-color="#C5C5C5"/>
<stop offset="1" stop-color="#9A9A9A"/>
</linearGradient>
<linearGradient id="paint8_linear" x1="28.2841" y1="25.5648" x2="30.4018" y2="28.5215" gradientUnits="userSpaceOnUse">
<stop stop-color="#C5C5C5"/>
<stop offset="1" stop-color="#9A9A9A"/>
</linearGradient>
<linearGradient id="paint9_linear" x1="28.2841" y1="25.5648" x2="30.4018" y2="28.5215" gradientUnits="userSpaceOnUse">
<stop stop-color="#C5C5C5"/>
<stop offset="1" stop-color="#9A9A9A"/>
</linearGradient>
</defs>
</svg>
