<svg width="40" height="40" viewBox="0 0 40 40" fill="none" xmlns="http://www.w3.org/2000/svg">
<g clip-path="url(#clip0)">
<path d="M39.3419 0.663513L39.342 0.663603C40.0169 1.33814 40.0169 2.43126 39.342 3.1058L39.342 3.10582L3.11139 39.3365L3.1113 39.3366C2.77434 39.6741 2.33241 39.8428 1.89027 39.8428C1.44815 39.8428 1.00619 39.6741 0.668884 39.3365L0.668817 39.3364C-0.00601203 38.6619 -0.00601164 37.5688 0.668817 36.8942L0.668839 36.8942L36.8995 0.663581L36.8995 0.663513C37.5737 -0.0115681 38.6677 -0.0115681 39.3419 0.663513Z" fill="url(#paint0_linear)" stroke="white" stroke-width="0.3"/>
<path d="M0.15 8.93783C0.15 4.10379 4.08347 0.17002 8.9175 0.17002C13.7515 0.17002 17.685 4.10349 17.685 8.93752C17.685 13.7716 13.7518 17.7053 8.9175 17.7053C4.08347 17.7053 0.15 13.7719 0.15 8.93783ZM3.60469 8.93752C3.60469 11.8669 5.98778 14.2503 8.9175 14.2503C11.8472 14.2503 14.2303 11.8669 14.2303 8.93752C14.2303 6.00812 11.8472 3.62471 8.9175 3.62471C5.98809 3.62471 3.60469 6.00811 3.60469 8.93752Z" fill="url(#paint1_linear)" stroke="white" stroke-width="0.3"/>
<path d="M22.315 31.0734C22.315 26.2394 26.2485 22.3059 31.0825 22.3059C35.9166 22.3059 39.85 26.2391 39.85 31.0734C39.85 35.9078 35.9166 39.841 31.0825 39.841C26.2485 39.841 22.315 35.9075 22.315 31.0734ZM25.7697 31.0731C25.7697 34.0025 28.1528 36.386 31.0825 36.386C34.0123 36.386 36.3953 34.0025 36.3953 31.0731C36.3953 28.1437 34.0119 25.7603 31.0825 25.7603C28.1531 25.7603 25.7697 28.1437 25.7697 31.0731Z" fill="url(#paint2_linear)" stroke="white" stroke-width="0.3"/>
</g>
<defs>
<linearGradient id="paint0_linear" x1="0.0126953" y1="0.00720215" x2="32.4339" y2="45.396" gradientUnits="userSpaceOnUse">
<stop stop-color="#C5C5C5"/>
<stop offset="1" stop-color="#9A9A9A"/>
</linearGradient>
<linearGradient id="paint1_linear" x1="0" y1="0.0200195" x2="14.4613" y2="20.2652" gradientUnits="userSpaceOnUse">
<stop stop-color="#C5C5C5"/>
<stop offset="1" stop-color="#9A9A9A"/>
</linearGradient>
<linearGradient id="paint2_linear" x1="22.165" y1="22.1559" x2="36.626" y2="42.401" gradientUnits="userSpaceOnUse">
<stop stop-color="#C5C5C5"/>
<stop offset="1" stop-color="#9A9A9A"/>
</linearGradient>
<clipPath id="clip0">
<rect width="40" height="40" fill="white"/>
</clipPath>
</defs>
</svg>
