<svg width="40" height="40" viewBox="0 0 40 40" fill="none" xmlns="http://www.w3.org/2000/svg">
<path d="M12.1105 16.4322C11.5578 15.8292 10.603 15.7789 9.99997 16.3317C9.39699 16.8844 9.34669 17.8392 9.89946 18.4422L17.4874 26.6835C17.789 26.985 18.1407 27.186 18.5427 27.186C18.5427 27.186 18.5427 27.186 18.5929 27.186C18.9949 27.186 19.3969 27.0352 19.6481 26.7337L38.8442 7.58795C39.4472 6.98497 39.4472 6.03015 38.8442 5.47738C38.2413 4.8744 37.2864 4.8744 36.7337 5.47738L18.6433 23.5176L12.1105 16.4322Z" fill="url(#paint0_linear)"/>
<path d="M38.4925 18.4925C37.6382 18.4925 36.985 19.1458 36.985 20C36.985 29.3467 29.3469 36.9849 20.0001 36.9849C10.6533 36.9849 3.01509 29.3468 3.01509 20.0001C3.01509 10.6534 10.6533 3.01509 20.0001 3.01509C20.8544 3.01509 21.5076 2.3618 21.5076 1.50759C21.5076 0.653379 20.8543 0 20.0001 0C8.99495 0 0 8.99495 0 20.0001C0 31.0052 8.99495 40.0001 20.0001 40.0001C31.0052 40.0001 40.0001 31.0052 40.0001 20.0001C40 19.1458 39.3468 18.4925 38.4925 18.4925Z" fill="url(#paint1_linear)"/>
<defs>
<linearGradient id="paint0_linear" x1="9.51447" y1="5.02515" x2="25.2588" y2="34.6471" gradientUnits="userSpaceOnUse">
<stop stop-color="#C5C5C5"/>
<stop offset="1" stop-color="#9A9A9A"/>
</linearGradient>
<linearGradient id="paint1_linear" x1="0" y1="0" x2="32.4329" y2="45.4053" gradientUnits="userSpaceOnUse">
<stop stop-color="#C5C5C5"/>
<stop offset="1" stop-color="#9A9A9A"/>
</linearGradient>
</defs>
</svg>
